<?xml version="1.0" standalone="no"?>
<!DOCTYPE svg PUBLIC "-//W3C//DTD SVG 1.0//EN" "http://www.w3.org/TR/2001/REC-SVG-20010904/DTD/svg10.dtd">
<svg xmlns="http://www.w3.org/2000/svg" xmlns:xlink="http://www.w3.org/1999/xlink" id="body_1" width="50" height="50">

<defs>
    <linearGradient transform="matrix(1 0 0 1 0 0)"  id="1" x1="512.001" y1="0.978" x2="512.001" y2="1025.023">
        <stop stop-color="#61FD7D" offset="0%"/>
        <stop stop-color="#2BB826" offset="100%"/>
    </linearGradient>
</defs>

<g transform="matrix(0.4166667 0 0 0.4166667 0 0)">
	<g transform="matrix(0.1171875 0 0 0.1171875 0 0)">
		<g>
            <path d="M1023.941 765.153C 1023.941 770.75903 1023.76996 782.919 1023.433 792.312C 1022.609 815.294 1020.787 844.951 1018.032 858.463C 1013.891 878.76904 1007.63995 897.935 999.49 913.888C 989.847 932.759 977.547 949.663 962.93097 964.252C 948.347 978.812 931.459 991.064 912.61597 1000.668C 896.57996 1008.84 877.29395 1015.09406 856.87195 1019.21704C 843.49396 1021.918 814.05994 1023.705 791.22394 1024.5171C 781.82196 1024.8531 769.6599 1025.0221 764.0739 1025.0221L764.0739 1025.0221L259.8479 1024.941C 254.2409 1024.941 242.0829 1024.769 232.6899 1024.432C 209.7069 1023.60803 180.0509 1021.786 166.5379 1019.032C 146.2319 1014.88995 127.0649 1008.63995 111.1129 1000.49C 92.2409 990.846 75.3379 978.546 60.7489 963.93C 46.1889 949.346 33.9369 932.459 24.3339 913.61597C 16.1599 897.579 9.9059 878.29297 5.7829 857.87195C 3.0828998 844.49396 1.2958999 815.05994 0.48289967 792.22296C 0.14889967 782.82196 -0.020100355 770.66 -0.020100355 765.07495L-0.020100355 765.07495L0.059899643 260.84695C 0.059899643 255.23996 0.23089965 243.08095 0.56789964 233.68796C 1.3928996 210.70496 3.2138996 181.04895 5.9688997 167.53696C 10.1098995 147.23096 16.3599 128.06396 24.510899 112.11096C 34.154 93.24 46.455 76.336 61.07 61.747C 75.654 47.188004 92.542 34.935 111.384995 25.331001C 127.422 17.159 146.709 10.905002 167.12999 6.7820015C 180.50699 4.0810013 209.94199 2.2940016 232.77798 1.4820013C 242.18 1.1470013 254.34299 0.9780013 259.92697 0.9780013L259.92697 0.9780013L764.15393 1.0590013C 769.7619 1.0590013 781.9199 1.2300013 791.3129 1.5670013C 814.2959 2.3920014 843.9509 4.2130013 857.4649 6.9680014C 877.7699 11.109001 896.9369 17.359001 912.8899 25.510002C 931.76086 35.153 948.6639 47.454002 963.25287 62.069C 977.8119 76.653 990.0649 93.54 999.66785 112.384C 1007.84186 128.421 1014.0958 147.707 1018.2189 168.128C 1020.9189 181.50601 1022.7049 210.94 1023.51886 233.77701C 1023.8539 243.17902 1024.0228 255.341 1024.0228 260.927L1024.0228 260.927L1023.94086 765.153L1023.941 765.153z" stroke="none" fill="url(#1)" />
		</g>
		<g>
            <path d="M783.302 243.246C 713.973 173.85901 621.773 135.627 523.539 135.58801C 321.13702 135.58801 156.406 300.256 156.32501 502.66C 156.29901 567.359 173.20801 630.514 205.34201 686.182L205.34201 686.182L153.246 876.411L347.911 825.364C 401.547 854.60803 461.933 870.02 523.393 870.046L523.393 870.046L523.544 870.046C 725.926 870.046 890.672 705.35803 890.754 502.95203C 890.793 404.86502 852.63306 312.63303 783.302 243.24603L783.302 243.24603L783.302 243.246zM523.544 808.047L523.419 808.047C 468.652 808.026 414.936 793.318 368.075 765.518L368.075 765.518L356.92902 758.906L241.41202 789.199L272.24603 676.607L264.98703 665.063C 234.43503 616.484 218.29903 560.334 218.32303 502.684C 218.38902 334.455 355.30804 197.58798 523.662 197.58798C 605.183 197.61899 681.816 229.39899 739.441 287.06998C 797.066 344.74097 828.78296 421.40198 828.753 502.92896C 828.687 671.17194 691.769 808.047 523.54395 808.047zM690.959 579.532C 681.782 574.941 636.673 552.75 628.26196 549.68896C 619.852 546.62695 613.73596 545.097 607.61694 554.28094C 601.50195 563.46295 583.91797 584.12396 578.56396 590.24493C 573.212 596.36694 567.86 597.13293 558.68494 592.54095C 549.5089 587.94995 519.94495 578.264 484.89893 547.01495C 457.62393 522.6959 439.20792 492.65594 433.85593 483.47195C 428.50394 474.28894 433.28693 469.32596 437.8799 464.75195C 442.00693 460.64294 447.0549 454.03894 451.6429 448.68295C 456.22992 443.32794 457.75992 439.49994 460.8179 433.37897C 463.8769 427.25696 462.3469 421.89996 460.0529 417.30896C 457.7599 412.71796 439.40887 367.56995 431.76288 349.20496C 424.3159 331.31897 416.74988 333.73895 411.1179 333.45795C 405.77188 333.19196 399.6489 333.13596 393.5329 333.13596C 387.4169 333.13596 377.4759 335.43097 369.0659 344.61395C 360.65588 353.79694 336.95288 375.98795 336.95288 421.13495C 336.95288 466.28195 369.8299 509.89896 374.41788 516.01996C 379.0059 522.14197 439.11688 614.79095 531.1589 654.522C 553.0509 663.972 570.14087 669.61597 583.46686 673.844C 605.44684 680.823 625.44885 679.839 641.2599 677.47797C 658.8879 674.845 695.5439 655.28894 703.1919 633.863C 710.8379 612.436 710.8379 594.07196 708.5439 590.246C 706.2499 586.42 700.1339 584.12396 690.95886 579.532z" stroke="none" fill="#FFFFFF" fill-rule="nonzero" />
		</g>
	</g>
</g>
</svg>